<svg id="Calque_1" data-name="Calque 1" xmlns="http://www.w3.org/2000/svg" viewBox="0 0 1080 601.043"><rect width="1080" height="601.043" fill="none"/><path d="M845.5,239.551,666.4,342.956a17.546,17.546,0,0,0,.165,30.485L845.849,474.379a36.787,36.787,0,0,0,36.1,0l179.286-100.938a17.546,17.546,0,0,0,.165-30.485l-179.1-103.405A36.79,36.79,0,0,0,845.5,239.551Z" fill="#2d8b6f" opacity="0.37"/><path d="M846.7,207.66,658.825,292.409v17.1a20.388,20.388,0,0,0,10.308,17.724L847.048,428.445a36.787,36.787,0,0,0,36.1,0l177.4-99.967a20.4,20.4,0,0,0,10.381-17.767V296.072L883.491,207.66A36.79,36.79,0,0,0,846.7,207.66Z" fill="#46c39e"/><path d="M846.7,173.631,667.6,277.037a17.546,17.546,0,0,0,.165,30.485L847.048,408.459a36.787,36.787,0,0,0,36.1,0l179.286-100.937a17.546,17.546,0,0,0,.165-30.485l-179.1-103.406A36.79,36.79,0,0,0,846.7,173.631Z" fill="#e0f5ef"/><path d="M713.676,331.193l-19.6-11.462a1.3,1.3,0,0,0-1.4.072l-1.3,1.13v.015l.934,20.265a4.637,4.637,0,0,0,2.087,3.623l19.439,12.455.008.007.043-.036,1.37-1.029a.936.936,0,0,0,.521-.841V334.8A4.615,4.615,0,0,0,713.676,331.193Zm-6.593,10.5-1.862,1.08.826,3.42-2.514-3.565-3.312.855c-.333.094-.8-.181-1.152-.667a1.841,1.841,0,0,1-.355-1.478l1.261-3.753-3.173-4.5,2.666,1.536,1.862-1.073.826-2.448a1.974,1.974,0,0,0-.355-.377,2.217,2.217,0,0,1,.8,1.231l1.261,5.21,4.079,2.355a2.227,2.227,0,0,1,.942,1.326,1.7,1.7,0,0,1,.043.369Z" fill="#090d49"/><path d="M712.278,332.207l-19.266-11.245a1.366,1.366,0,0,0-1.637-.014,1.576,1.576,0,0,0-.464,1.239v20.04a4.645,4.645,0,0,0,2.094,3.623l19.28,11.354a1.389,1.389,0,0,0,1.55.087.074.074,0,0,0,.051-.029,1.526,1.526,0,0,0,.493-1.261V335.815A4.6,4.6,0,0,0,712.278,332.207Zm-12.81,2.413,1.862-1.073.826-2.448a1.974,1.974,0,0,0-.355-.377,2.217,2.217,0,0,1,.8,1.231l1.261,5.21,4.079,2.355a2.227,2.227,0,0,1,.942,1.326,1.7,1.7,0,0,1,.043.369l-1.847.478-1.862,1.08.826,3.42-2.514-3.565-3.312.855c-.333.094-.8-.181-1.152-.667a1.841,1.841,0,0,1-.355-1.478l1.261-3.753-3.173-4.5Z" fill="#121a91"/><path d="M705.841,347.491h.006a.438.438,0,0,0,.065-.1A.4.4,0,0,1,705.841,347.491Z" fill="#0c3157"/><path d="M695.354,332.251a.618.618,0,0,1,.123-.014.379.379,0,0,0-.117.01h0Z" fill="#0c3157"/><path d="M701.33,333.547l-1.862,1.073.608-1.8.66-1.949c.13-.391.507-.493.934-.246a1.524,1.524,0,0,1,.131.094,1.974,1.974,0,0,1,.355.377Z" fill="#f5f9fc"/><path d="M706.481,347.973c.138.543-.007.978-.355,1.072a.774.774,0,0,1-.579-.123,1.78,1.78,0,0,1-.573-.551l-3.3-4.673-3.3.855c-.341.094-.812-.174-1.16-.666a1.837,1.837,0,0,1-.355-1.478l1.254-3.754-3.29-4.673a1.8,1.8,0,0,1-.362-1.471c.131-.391.493-.485.906-.26a.06.06,0,0,1,.029.014l1.413.819,3.173,4.5-1.261,3.753a1.841,1.841,0,0,0,.355,1.478c.348.486.819.761,1.152.667l3.312-.855,2.514,3.565.007.007Z" fill="#f5f9fc"/><path d="M708.93,341.213a1.061,1.061,0,0,1-.058.362.827.827,0,0,1-.1.181.461.461,0,0,1-.246.153l-3.3.862,1.862-1.08Z" fill="#f5f9fc"/><path d="M701.8,330.722a1.524,1.524,0,0,0-.131-.094c-.427-.247-.8-.145-.934.246l-.66,1.949-.608,1.8,1.862-1.073.826-2.448A1.974,1.974,0,0,0,701.8,330.722Zm5.282,10.969-1.862,1.08,1.992-.529,1.312-.333a.461.461,0,0,0,.246-.153.476.476,0,0,0,.1-.181,1.061,1.061,0,0,0,.058-.362Zm-.6,6.282-.427-1.775-.007-.007-2.514-3.565-3.312.855c-.333.094-.8-.181-1.152-.667a1.841,1.841,0,0,1-.355-1.478l1.261-3.753-3.173-4.5-.008-.015-1.4-.8a.06.06,0,0,0-.029-.014c-.413-.225-.775-.131-.906.26a1.8,1.8,0,0,0,.362,1.471l3.29,4.673-1.254,3.754a1.837,1.837,0,0,0,.355,1.478c.348.492.819.76,1.16.666l3.3-.855,3.3,4.673a1.78,1.78,0,0,0,.573.551.774.774,0,0,0,.579.123C706.474,348.951,706.619,348.516,706.481,347.973Z" fill="#090d49"/><path d="M749.322,352.231l-19.6-11.463a1.3,1.3,0,0,0-1.406.073l-1.3,1.13v.015l.934,20.265a4.637,4.637,0,0,0,2.087,3.623l19.439,12.454.007.008.044-.037,1.369-1.028a.936.936,0,0,0,.522-.841V355.839A4.615,4.615,0,0,0,749.322,352.231Zm-6.594,10.5-1.862,1.08.826,3.419-2.514-3.564-3.311.855c-.333.094-.8-.182-1.152-.667a1.842,1.842,0,0,1-.355-1.478l1.261-3.753-3.174-4.5,2.667,1.536,1.862-1.073.826-2.449a1.967,1.967,0,0,0-.355-.376,2.213,2.213,0,0,1,.8,1.231l1.261,5.21,4.079,2.354a2.233,2.233,0,0,1,.942,1.326,1.711,1.711,0,0,1,.043.37Z" fill="#090d49"/><path d="M747.923,353.245,728.658,342a1.366,1.366,0,0,0-1.637-.014,1.574,1.574,0,0,0-.464,1.238v20.041a4.647,4.647,0,0,0,2.094,3.623l19.28,11.353a1.387,1.387,0,0,0,1.55.087.073.073,0,0,0,.051-.029,1.526,1.526,0,0,0,.493-1.26V356.853A4.594,4.594,0,0,0,747.923,353.245Zm-12.809,2.413,1.862-1.073.826-2.449a1.967,1.967,0,0,0-.355-.376,2.213,2.213,0,0,1,.8,1.231l1.261,5.21,4.079,2.354a2.233,2.233,0,0,1,.942,1.326,1.711,1.711,0,0,1,.043.37l-1.848.478-1.862,1.08.826,3.419-2.514-3.564-3.311.855c-.333.094-.8-.182-1.152-.667a1.842,1.842,0,0,1-.355-1.478l1.261-3.753-3.174-4.5Z" fill="#121a91"/><path d="M741.487,368.528h.006a.481.481,0,0,0,.065-.1A.4.4,0,0,1,741.487,368.528Z" fill="#0c3157"/><path d="M731,353.289a.609.609,0,0,1,.123-.014.376.376,0,0,0-.117.01h0Z" fill="#0c3157"/><path d="M736.976,354.585l-1.862,1.073.608-1.8.66-1.949c.13-.392.507-.493.934-.247a1.348,1.348,0,0,1,.131.095,1.967,1.967,0,0,1,.355.376Z" fill="#f5f9fc"/><path d="M742.127,369.011c.138.543-.007.978-.355,1.072a.775.775,0,0,1-.58-.123,1.788,1.788,0,0,1-.572-.551l-3.3-4.673-3.3.855c-.34.094-.811-.174-1.159-.667a1.831,1.831,0,0,1-.355-1.478l1.253-3.753-3.289-4.673a1.8,1.8,0,0,1-.362-1.471c.13-.391.492-.485.9-.261a.054.054,0,0,1,.029.015l1.413.819,3.174,4.5-1.261,3.753a1.842,1.842,0,0,0,.355,1.478c.348.485.819.761,1.152.667l3.311-.855,2.514,3.564.008.008Z" fill="#f5f9fc"/><path d="M744.576,362.251a1.09,1.09,0,0,1-.058.362.827.827,0,0,1-.1.181.456.456,0,0,1-.247.152l-3.3.863,1.862-1.08Z" fill="#f5f9fc"/><path d="M737.447,351.76a1.348,1.348,0,0,0-.131-.095c-.427-.246-.8-.145-.934.247l-.66,1.949-.608,1.8,1.862-1.073.826-2.449A1.967,1.967,0,0,0,737.447,351.76Zm5.281,10.969-1.862,1.08,1.993-.529,1.311-.334a.456.456,0,0,0,.247-.152.49.49,0,0,0,.1-.181,1.09,1.09,0,0,0,.058-.362Zm-.6,6.282-.427-1.775-.008-.008-2.514-3.564-3.311.855c-.333.094-.8-.182-1.152-.667a1.842,1.842,0,0,1-.355-1.478l1.261-3.753-3.174-4.5-.007-.015-1.406-.8a.054.054,0,0,0-.029-.015c-.413-.224-.775-.13-.9.261a1.8,1.8,0,0,0,.362,1.471l3.289,4.673-1.253,3.753a1.831,1.831,0,0,0,.355,1.478c.348.493.819.761,1.159.667l3.3-.855,3.3,4.673a1.788,1.788,0,0,0,.572.551.775.775,0,0,0,.58.123C742.12,369.989,742.265,369.554,742.127,369.011Z" fill="#090d49"/><path d="M784.967,373.268l-19.6-11.462a1.3,1.3,0,0,0-1.406.073l-1.3,1.13v.014l.935,20.266a4.633,4.633,0,0,0,2.087,3.622l19.439,12.455.007.007.044-.036,1.369-1.029a.933.933,0,0,0,.522-.84V376.876A4.616,4.616,0,0,0,784.967,373.268Zm-6.593,10.5-1.862,1.079.826,3.42-2.514-3.565-3.311.855c-.333.1-.8-.181-1.152-.666a1.834,1.834,0,0,1-.355-1.478l1.26-3.753-3.173-4.5,2.666,1.536,1.862-1.072.826-2.449a1.941,1.941,0,0,0-.355-.377,2.216,2.216,0,0,1,.805,1.232l1.26,5.209,4.079,2.355a2.225,2.225,0,0,1,.942,1.326,1.715,1.715,0,0,1,.044.37Z" fill="#090d49"/><path d="M783.569,374.283,764.3,363.038a1.369,1.369,0,0,0-1.638-.015,1.577,1.577,0,0,0-.463,1.239V384.3a4.646,4.646,0,0,0,2.093,3.623l19.28,11.353a1.388,1.388,0,0,0,1.551.087.073.073,0,0,0,.051-.029,1.527,1.527,0,0,0,.492-1.261V377.891A4.6,4.6,0,0,0,783.569,374.283Zm-12.81,2.412,1.862-1.072.826-2.449a1.941,1.941,0,0,0-.355-.377,2.216,2.216,0,0,1,.805,1.232l1.26,5.209,4.079,2.355a2.225,2.225,0,0,1,.942,1.326,1.715,1.715,0,0,1,.044.37l-1.848.478-1.862,1.079.826,3.42-2.514-3.565-3.311.855c-.333.1-.8-.181-1.152-.666a1.834,1.834,0,0,1-.355-1.478l1.26-3.753-3.173-4.5Z" fill="#121a91"/><path d="M777.132,389.566h.006a.471.471,0,0,0,.066-.095A.425.425,0,0,1,777.132,389.566Z" fill="#0c3157"/><path d="M766.646,374.327a.6.6,0,0,1,.123-.014.373.373,0,0,0-.117.01h0Z" fill="#0c3157"/><path d="M772.621,375.623l-1.862,1.072.609-1.8.659-1.949c.131-.391.507-.492.935-.246a1.513,1.513,0,0,1,.13.094,1.941,1.941,0,0,1,.355.377Z" fill="#f5f9fc"/><path d="M777.773,390.049c.137.543-.007.978-.355,1.072a.78.78,0,0,1-.58-.123,1.779,1.779,0,0,1-.572-.551l-3.3-4.673-3.3.855c-.341.094-.811-.174-1.159-.667a1.828,1.828,0,0,1-.355-1.478l1.253-3.753-3.289-4.673a1.8,1.8,0,0,1-.362-1.471c.13-.391.492-.486.9-.261a.051.051,0,0,1,.029.015l1.413.818,3.173,4.5-1.26,3.753a1.834,1.834,0,0,0,.355,1.478c.348.485.819.761,1.152.666l3.311-.855,2.514,3.565.007.007Z" fill="#f5f9fc"/><path d="M780.222,383.289a1.094,1.094,0,0,1-.058.362.834.834,0,0,1-.1.181.465.465,0,0,1-.246.152l-3.3.862,1.862-1.079Z" fill="#f5f9fc"/><path d="M773.092,372.8a1.513,1.513,0,0,0-.13-.094c-.428-.246-.8-.145-.935.246l-.659,1.949-.609,1.8,1.862-1.072.826-2.449A1.941,1.941,0,0,0,773.092,372.8Zm5.282,10.97-1.862,1.079,1.993-.529,1.311-.333a.465.465,0,0,0,.246-.152.493.493,0,0,0,.1-.181,1.094,1.094,0,0,0,.058-.362Zm-.6,6.282-.428-1.776-.007-.007-2.514-3.565-3.311.855c-.333.1-.8-.181-1.152-.666a1.834,1.834,0,0,1-.355-1.478l1.26-3.753-3.173-4.5-.007-.014-1.406-.8a.051.051,0,0,0-.029-.015c-.413-.225-.775-.13-.9.261a1.8,1.8,0,0,0,.362,1.471l3.289,4.673-1.253,3.753a1.828,1.828,0,0,0,.355,1.478c.348.493.818.761,1.159.667l3.3-.855,3.3,4.673a1.779,1.779,0,0,0,.572.551.78.78,0,0,0,.58.123C777.766,391.027,777.91,390.592,777.773,390.049Z" fill="#090d49"/><path d="M820.613,394.306l-19.6-11.462a1.3,1.3,0,0,0-1.4.072l-1.3,1.131v.014l.935,20.265a4.633,4.633,0,0,0,2.086,3.623l19.44,12.455.007.007.043-.036,1.37-1.029a.934.934,0,0,0,.521-.84V397.914A4.615,4.615,0,0,0,820.613,394.306Zm-6.593,10.5-1.862,1.079.826,3.42-2.514-3.565-3.311.855c-.334.094-.8-.181-1.152-.666a1.834,1.834,0,0,1-.355-1.478l1.26-3.754-3.173-4.5,2.666,1.536,1.862-1.072.826-2.449a2,2,0,0,0-.355-.377,2.211,2.211,0,0,1,.8,1.232l1.261,5.209,4.079,2.355a2.222,2.222,0,0,1,.942,1.326,1.7,1.7,0,0,1,.043.369Z" fill="#090d49"/><path d="M819.215,395.32l-19.266-11.244a1.368,1.368,0,0,0-1.637-.015,1.576,1.576,0,0,0-.464,1.239v20.041a4.644,4.644,0,0,0,2.094,3.622l19.28,11.354a1.39,1.39,0,0,0,1.551.087.074.074,0,0,0,.05-.029,1.525,1.525,0,0,0,.493-1.261V398.929A4.6,4.6,0,0,0,819.215,395.32Zm-12.81,2.413,1.862-1.072.826-2.449a2,2,0,0,0-.355-.377,2.211,2.211,0,0,1,.8,1.232l1.261,5.209,4.079,2.355a2.222,2.222,0,0,1,.942,1.326,1.7,1.7,0,0,1,.043.369l-1.847.479-1.862,1.079.826,3.42-2.514-3.565-3.311.855c-.334.094-.8-.181-1.152-.666a1.834,1.834,0,0,1-.355-1.478l1.26-3.754-3.173-4.5Z" fill="#121a91"/><path d="M812.778,410.6h.006a.5.5,0,0,0,.066-.095A.449.449,0,0,1,812.778,410.6Z" fill="#0c3157"/><path d="M802.292,395.365a.6.6,0,0,1,.122-.014.379.379,0,0,0-.117.01h0Z" fill="#0c3157"/><path d="M808.267,396.661l-1.862,1.072.609-1.8.659-1.949c.13-.391.507-.492.935-.246a1.513,1.513,0,0,1,.13.094,2,2,0,0,1,.355.377Z" fill="#f5f9fc"/><path d="M813.419,411.086c.137.544-.008.978-.355,1.073a.776.776,0,0,1-.58-.124,1.777,1.777,0,0,1-.573-.55l-3.3-4.673-3.3.854c-.341.1-.812-.173-1.16-.666a1.837,1.837,0,0,1-.355-1.478l1.254-3.753-3.289-4.673a1.8,1.8,0,0,1-.363-1.471c.131-.392.493-.486.906-.261a.056.056,0,0,1,.029.014l1.413.819,3.173,4.5-1.26,3.754a1.834,1.834,0,0,0,.355,1.478c.347.485.818.76,1.152.666l3.311-.855,2.514,3.565.007.007Z" fill="#f5f9fc"/><path d="M815.867,404.326a1.1,1.1,0,0,1-.057.363.877.877,0,0,1-.1.181.465.465,0,0,1-.246.152l-3.3.862,1.862-1.079Z" fill="#f5f9fc"/><path d="M808.738,393.835a1.513,1.513,0,0,0-.13-.094c-.428-.246-.8-.145-.935.246l-.659,1.949-.609,1.8,1.862-1.072.826-2.449A2,2,0,0,0,808.738,393.835Zm5.282,10.97-1.862,1.079,1.992-.529,1.312-.333a.465.465,0,0,0,.246-.152.493.493,0,0,0,.1-.181,1.1,1.1,0,0,0,.057-.363Zm-.6,6.281-.428-1.775-.007-.007-2.514-3.565-3.311.855c-.334.094-.8-.181-1.152-.666a1.834,1.834,0,0,1-.355-1.478l1.26-3.754-3.173-4.5-.008-.014-1.4-.805a.056.056,0,0,0-.029-.014c-.413-.225-.775-.131-.906.261a1.8,1.8,0,0,0,.363,1.471l3.289,4.673-1.254,3.753a1.837,1.837,0,0,0,.355,1.478c.348.493.819.761,1.16.666l3.3-.854,3.3,4.673a1.777,1.777,0,0,0,.573.55.776.776,0,0,0,.58.124C813.411,412.064,813.556,411.63,813.419,411.086Z" fill="#090d49"/><path d="M977.839,377.351v-9.564h-2.758c-2.476-4.263-6.6-8.277-12.479-11.672-20.316-11.729-53.253-11.729-73.568,0-5.88,3.395-10,7.409-12.479,11.672H873.8v9.485h0c-.035,7.713,5.038,15.432,15.23,21.316,20.316,11.73,53.253,11.73,73.568,0C972.761,392.725,977.84,385.037,977.839,377.351Z" fill="#090d49"/><path d="M962.6,389.025c-20.315,11.728-53.252,11.728-73.568,0s-20.316-30.745,0-42.474,53.252-11.729,73.568,0S982.918,377.3,962.6,389.025Z" fill="#121a91"/><path d="M962.6,389.024c-20.315,11.73-53.252,11.73-73.568,0-9.736-5.621-14.753-12.917-15.158-20.282-.438,8,4.579,16.086,15.158,22.194,20.316,11.729,53.253,11.729,73.568,0,10.579-6.108,15.6-14.19,15.157-22.193C977.356,376.107,972.339,383.4,962.6,389.024Z" fill="#fff"/><path d="M900.745,377.731a2.341,2.341,0,0,1-1.371-1.917l.053-19.568c0-1.491,2.1-2.7,4.689-2.7s4.674,1.213,4.673,2.708l-.043,16.226,47.092-5.766c2.531-.311,5.015.623,5.552,2.083s-1.08,2.9-3.608,3.205l-52.754,6.46a7.43,7.43,0,0,1-3.923-.545C900.98,377.859,900.86,377.8,900.745,377.731Z" fill="#fff"/><g style="isolation:isolate"><path d="M991.673,193.333c-.253.108-.5.215-.753.3-.216.077-.428.144-.64.209-.105.031-.212.069-.316.1-.312.086-.621.161-.924.221l-.023.006h0c-.427.085-.84.138-1.244.179-.115.011-.23.021-.343.029-.254.019-.5.03-.744.035-.1,0-.208.006-.308,0-.259,0-.508-.01-.751-.025-.054,0-.112,0-.166-.007-.288-.021-.563-.05-.824-.085-.074-.01-.141-.022-.212-.033-.181-.027-.359-.055-.524-.086-.087-.017-.167-.035-.25-.052-.138-.029-.275-.059-.4-.089l-.222-.056c-.12-.032-.235-.063-.34-.094l-.176-.052c-.114-.036-.217-.069-.307-.1l-.093-.031c-.13-.046-.233-.086-.3-.113l-.073-.03-.016-.006-11.653,6.772.078.032.012,0c.068.027.164.064.3.112l.024.009.074.024c.091.031.19.063.3.1l.076.025c.029.009.069.018.1.027.106.031.219.062.34.094.046.012.083.024.131.036l.092.02c.126.031.261.06.4.089.063.014.116.028.181.041l.068.011c.166.031.343.059.524.086.063.01.118.022.183.031l.03,0c.261.034.535.063.822.084l.027,0c.047,0,.1,0,.147,0,.241.014.488.023.744.025.037,0,.07,0,.107,0,.065,0,.136-.008.2-.009.243,0,.491-.016.745-.035.069,0,.131,0,.2-.009.045,0,.095-.016.141-.02.4-.04.814-.094,1.24-.178h.015c.308-.062.623-.138.941-.225.1-.029.212-.067.317-.1.174-.052.347-.1.523-.162.038-.013.076-.032.114-.046.25-.089.5-.2.756-.3.126-.054.249-.1.376-.158.381-.177.764-.373,1.151-.6l11.653-6.772c-.386.225-.77.421-1.151.6C991.923,193.233,991.8,193.279,991.673,193.333Z" fill="#0010f5"/><polygon points="1015.906 197.136 998.822 187.272 987.168 194.045 1004.253 203.908 1021.337 213.772 1032.99 207 1015.906 197.136" fill="#1722be"/><path d="M1049.7,232.75c-.125-.1-.284-.227-.475-.388s-.38-.325-.608-.53-.45-.412-.7-.656c-.238-.229-.493-.48-.763-.756q-.378-.384-.794-.831-.391-.423-.814-.9t-.841-.985q-.437-.523-.895-1.1-.5-.635-1.023-1.34-.744-1.005-1.526-2.16c-.773-1.145-1.569-2.4-2.375-3.781q-.748-1.28-1.505-2.7-.511-.963-1.024-1.99-.438-.88-.874-1.809-.418-.9-.835-1.836t-.822-1.919q-.415-1-.824-2.047l-.007-.018-11.653,6.772.007.018q.408,1.049.823,2.048.408.982.822,1.918t.836,1.836q.435.93.873,1.809.511,1.028,1.024,1.99.756,1.419,1.505,2.7c.806,1.378,1.6,2.636,2.376,3.781q.78,1.156,1.526,2.16.522.707,1.023,1.34.457.582.894,1.1t.842.985q.422.48.814.9.416.447.793.832c.27.275.526.526.764.755.255.245.491.463.7.656s.431.381.607.53c.191.161.351.29.475.389.159.125.262.2.3.231L1050,232.982C1049.962,232.951,1049.859,232.876,1049.7,232.75Z" fill="#0010f5"/><path d="M1038.349,239.754c6.751,46.2-18.265,55.481-34.357,56.124-16.036-19.191-40.918-57.281-33.927-95.548.484.2,9.69,4.045,17.1-6.285l17.085,9.863,17.084,9.864C1028.668,232.615,1037.865,239.4,1038.349,239.754Z" fill="#141ea3"/><path d="M1051.128,248.061c0-.066,0-.128,0-.194,0-.191-.007-.394-.007-.587,0-.628-.009-1.263-.025-1.909,0-.144,0-.28,0-.425-.006-.179-.02-.369-.026-.55q-.034-.931-.089-1.89c-.012-.208-.016-.405-.029-.615-.007-.117-.021-.241-.029-.359-.052-.781-.117-1.577-.19-2.383-.015-.162-.023-.316-.038-.479,0-.032-.008-.066-.011-.1q-.148-1.53-.349-3.124c-.01-.077-.015-.149-.025-.225q-.141-1.107-.307-2.241l-11.653,6.772c.122.836.23,1.655.331,2.466q.2,1.592.349,3.125c.019.195.032.382.05.576.073.806.137,1.6.19,2.383.022.328.039.651.057.974q.055.957.089,1.891c.012.326.024.652.032.974.016.649.023,1.286.024,1.917,0,.256.005.517,0,.77-.007.871-.025,1.726-.059,2.561,0,.1-.012.193-.017.291q-.051,1.13-.137,2.218c-.02.261-.045.517-.068.774q-.078.864-.176,1.7c-.03.252-.059.5-.092.751-.1.793-.216,1.572-.347,2.328,0,.027-.009.056-.013.084-.14.8-.3,1.575-.469,2.336-.043.192-.088.38-.132.569-.2.85-.411,1.683-.646,2.483l-.006.02c-.272.924-.571,1.807-.886,2.665-.037.1-.072.2-.109.3q-.581,1.542-1.25,2.948c-.021.044-.04.09-.061.134-.285.593-.583,1.164-.889,1.722-.08.146-.163.288-.244.432q-.38.668-.778,1.3c-.075.118-.147.239-.223.356q-.491.757-1.007,1.469c-.072.1-.146.192-.218.289q-.429.576-.874,1.119c-.1.124-.2.249-.306.371-.356.421-.716.832-1.085,1.225-.014.015-.027.031-.041.045-.384.407-.777.8-1.175,1.174-.111.105-.223.208-.334.311q-.48.442-.97.858c-.094.079-.186.162-.281.24q-.615.508-1.245.977c-.093.069-.188.135-.282.2q-.513.374-1.037.723c-.12.08-.241.161-.362.24-.435.281-.872.554-1.314.811l11.653-6.772c.443-.257.88-.531,1.315-.812.121-.078.24-.159.36-.239q.525-.349,1.039-.723c.094-.069.189-.134.282-.2q.63-.469,1.245-.978c.094-.078.185-.159.278-.238q.492-.417.973-.86c.111-.1.223-.2.333-.31.4-.379.791-.767,1.175-1.174.014-.015.027-.031.041-.045.37-.394.73-.8,1.085-1.225.1-.122.205-.246.306-.37q.444-.543.872-1.117c.074-.1.149-.194.222-.294q.516-.71,1.005-1.466c.024-.038.051-.072.075-.11.052-.08.1-.169.15-.251q.4-.632.775-1.3c.083-.144.166-.288.246-.435.306-.557.6-1.128.888-1.72.008-.016.017-.031.025-.048s.024-.06.037-.087q.668-1.407,1.249-2.947c.012-.031.027-.058.038-.089.026-.069.046-.145.071-.214.316-.859.615-1.742.887-2.665l0-.014v-.005c.235-.8.446-1.631.646-2.48.024-.1.055-.2.078-.3.02-.088.035-.183.055-.272.169-.759.328-1.532.468-2.332l0-.014c0-.027.007-.056.012-.082.13-.753.243-1.528.346-2.317.013-.1.032-.2.045-.3.018-.146.029-.3.046-.451q.1-.837.176-1.7c.015-.166.037-.324.051-.492.008-.091.01-.189.018-.281q.084-1.089.137-2.219c0-.084.011-.163.015-.248v-.042C1051.1,249.785,1051.121,248.93,1051.128,248.061Z" fill="#0d146d"/></g><path d="M1020.47,240.313c1,1.527,1.074,3.54.155,4.5l0,0-18.939,19.583c-.919.956-2.479.492-3.483-1.035l0,0-10.329-15.662c-1.012-1.551-1.081-3.584-.155-4.557.932-.921,2.473-.462,3.486,1.039l8.537,12.991,17.248-17.891c.919-.955,2.479-.492,3.483,1.036Z" fill="#fff" fill-rule="evenodd"/><polygon points="853.325 304.091 917.526 267.025 853.325 229.96 789.125 267.025 853.325 304.091" fill="#c4dffa" opacity="0.37"/><polygon points="795.578 186.663 795.578 253.344 853.325 286.685 853.325 220.004 795.578 186.663" fill="#c1ebdf"/><polygon points="911.072 186.663 911.073 253.344 853.325 286.685 853.325 220.004 911.072 186.663" fill="#65cdae"/><polygon points="853.325 220.004 911.073 186.663 853.325 153.323 795.578 186.663 853.325 220.004" fill="#f2fcf9"/><polygon points="869.084 342.423 908.756 319.518 869.084 296.614 829.412 319.518 869.084 342.423" fill="#c4dffa" opacity="0.37"/><polygon points="833.4 269.86 833.4 311.064 869.084 331.667 869.084 290.462 833.4 269.86" fill="#c1ebdf"/><polygon points="904.768 269.86 904.768 311.064 869.084 331.667 869.084 290.462 904.768 269.86" fill="#65cdae"/><polygon points="869.084 290.462 904.768 269.86 869.084 249.258 833.4 269.86 869.084 290.462" fill="#f2fcf9"/><polygon points="776.236 337.044 819.636 311.988 776.236 286.931 732.836 311.988 776.236 337.044" fill="#c4dffa" opacity="0.37"/><polygon points="737.199 257.662 737.198 302.739 776.236 325.278 776.236 280.201 737.199 257.662" fill="#c1ebdf"/><polygon points="815.274 257.662 815.274 302.739 776.236 325.278 776.236 280.201 815.274 257.662" fill="#65cdae"/><polygon points="776.236 280.201 815.274 257.662 776.236 235.124 737.199 257.662 776.236 280.201" fill="#f2fcf9"/><polygon points="776.236 275.133 805.299 258.354 776.236 241.575 747.174 258.354 776.236 275.133" fill="#46c39e" opacity="0.11"/><polygon points="750.095 221.976 750.095 252.161 776.236 267.253 776.236 237.068 750.095 221.976" fill="#c1ebdf"/><polygon points="802.377 221.976 802.377 252.161 776.236 267.253 776.236 237.068 802.377 221.976" fill="#65cdae"/><polygon points="776.236 237.068 802.377 221.976 776.236 206.883 750.095 221.976 776.236 237.068" fill="#f2fcf9"/><ellipse cx="852.955" cy="186.411" rx="21.474" ry="12.398" fill="#fff"/><path d="M837.771,178.9c8.351-4.822,22.017-4.822,30.368,0,3.9,2.252,5.978,5.174,6.235,8.139.293-3.383-1.785-6.824-6.235-9.393-8.351-4.822-22.017-4.822-30.368,0-4.45,2.569-6.528,6.01-6.235,9.393C831.792,184.073,833.87,181.151,837.771,178.9Z" fill="#65cdae"/><path d="M838.971,191.726c-2.11-2.955-2.577-6.831-2.577-10.539V174.8h33.524v5.736a17.257,17.257,0,0,1-3.425,11.088C864.467,194.2,841.426,195.165,838.971,191.726Z" fill="#000cb8"/><path d="M838.971,191.726c-2.11-2.955-2.577-6.831-2.577-10.539V174.8h33.524v5.736a22.059,22.059,0,0,1-3.3,11.425C866.45,192.226,841.426,195.165,838.971,191.726Z" fill="#000cb8"/><path d="M864.944,167.986c-6.508-3.759-17.16-3.759-23.669,0s-6.508,9.907,0,13.665,17.161,3.758,23.669,0S871.453,171.743,864.944,167.986Z" fill="#26538e"/><path d="M853.16,111.9a30.636,30.636,0,0,0-16.755,56.291v6.93h0c.1,2.381,1.861,4.789,4.99,6.595,6.454,3.726,17.137,3.682,23.591-.045,3.128-1.806,4.726-4.169,4.822-6.55h.107v-6.93A30.636,30.636,0,0,0,853.16,111.9Z" fill="lime" opacity="0.8"/><path d="M836.024,145.893a20.041,20.041,0,0,1,20.04-20.041c10.245,0,9.453-8.543-3.606-8.543a23.648,23.648,0,0,0-23.648,23.647C828.81,149.242,836.024,152.914,836.024,145.893Z" fill="#fff"/><path d="M864.986,184.352c-6.454,3.726-17.138,3.77-23.591.044-3.129-1.806-4.894-4.214-4.99-6.595v2.3c.1,2.381,1.861,4.789,4.99,6.595,6.453,3.726,17.137,3.682,23.591-.044,3.128-1.807,4.726-4.17,4.822-6.551h.107v-2.3h-.107C869.712,180.182,868.114,182.545,864.986,184.352Z" fill="#090d49"/><path d="M864.962,190.747c-6.556,3.785-17.407,3.83-23.962.045a11.428,11.428,0,0,1-4.091-3.743,23.149,23.149,0,0,0,1.723,4.359A13.85,13.85,0,0,0,841,193.124c6.555,3.785,17.406,3.74,23.962-.045a13.5,13.5,0,0,0,1.96-1.371A23.173,23.173,0,0,0,869,186.944,10.622,10.622,0,0,1,864.962,190.747Z" fill="#090d49"/><path d="M853.052,109.363h-.012a2.5,2.5,0,0,1-2.485-2.51l.092-19.145a2.5,2.5,0,0,1,2.5-2.485h.012a2.5,2.5,0,0,1,2.485,2.509l-.092,19.146A2.5,2.5,0,0,1,853.052,109.363Zm20.461,3.629,9.67-16.524a2.5,2.5,0,0,0-4.312-2.522L869.2,110.47a2.5,2.5,0,0,0,4.311,2.522ZM886,127.283l16.648-9.458a2.5,2.5,0,0,0-2.469-4.343l-16.647,9.457A2.5,2.5,0,0,0,886,127.283Zm-62.181-1.135a2.5,2.5,0,0,0-.861-3.426l-16.432-9.828a2.5,2.5,0,0,0-2.565,4.288l16.432,9.828a2.5,2.5,0,0,0,3.426-.862Zm12.577-12.375a2.5,2.5,0,0,0,.971-3.4l-9.3-16.737a2.5,2.5,0,0,0-4.366,2.426L833,112.8a2.5,2.5,0,0,0,3.395.969Z" fill="lime" opacity="0.8"/><path d="M742.558,274.1l4.922-2.863a1.964,1.964,0,0,1,.247-.144l0,0h0a1.874,1.874,0,0,1,1.77.066l19.84,11.455a4.6,4.6,0,0,1,2.3,3.981V309.5a1.871,1.871,0,0,1-.849,1.58h0a1.994,1.994,0,0,1-.19.11l-4.918,2.848-.431-4.946-16.293-9.407a4.6,4.6,0,0,1-2.3-3.98V278.878c-1.226.6-2.228,1.067-2.228,1.067Z" fill="#236c56"/><path d="M764.479,285.432l-19.841-11.455a1.9,1.9,0,0,0-2.842,1.641v22.91a4.6,4.6,0,0,0,2.3,3.98l19.841,11.455a1.9,1.9,0,0,0,2.842-1.641v-22.91A4.6,4.6,0,0,0,764.479,285.432Z" fill="#2d8b6f"/><path d="M753.977,288.316a2,2,0,0,1-.821-1.625l.04-1.132c.022-.625.425-.911.9-.639a1.948,1.948,0,0,1,.821,1.625l-.04,1.132C754.845,288.291,754.448,288.573,753.977,288.316Z" fill="#fff"/><path d="M749.14,284.791c.352-.248.9.063,1.216.7l.571,1.13c.334.624.331,1.353-.007,1.628s-.883-.008-1.218-.632c-.016-.03-.032-.061-.047-.093l-.571-1.13C748.764,285.757,748.79,285.041,749.14,284.791Z" fill="#fff"/><path d="M747.8,289.392l.86.493a1.944,1.944,0,0,1,.821,1.625c-.022.625-.425.911-.9.639l-.861-.493a1.943,1.943,0,0,1-.82-1.625C746.918,289.406,747.321,289.12,747.8,289.392Z" fill="#fff"/><path d="M757.023,290.112l.626-.444c.365-.224.908.117,1.214.761a1.358,1.358,0,0,1-.054,1.534l-.626.445c-.338.275-.884-.008-1.218-.632s-.332-1.352.007-1.627A.368.368,0,0,1,757.023,290.112Z" fill="#fff"/><path d="M758.979,295.8l.861.493a1.943,1.943,0,0,1,.82,1.625c-.022.625-.425.911-.9.638l-.86-.492a1.945,1.945,0,0,1-.821-1.625C758.1,295.815,758.5,295.529,758.979,295.8Z" fill="#fff"/><path d="M755.26,301.752c-.044,1.249-.851,1.821-1.8,1.276a3.887,3.887,0,0,1-1.64-3.248l.04-1.132,3.441,1.972Z" fill="#fff"/><path d="M753.937,289.448a7.771,7.771,0,0,1,3.282,6.5,2.927,2.927,0,0,1-1.434,2.793.872.872,0,0,0-.446.748l-3.441-1.972a2.628,2.628,0,0,0-.376-1.22A7.968,7.968,0,0,1,750.337,292c.088-2.5,1.7-3.644,3.6-2.555Z" fill="#fff"/><path d="M901.1,284.82l-4.433-2.579a1.707,1.707,0,0,0-.223-.13h0a1.687,1.687,0,0,0-1.594.059l-17.868,10.316a4.139,4.139,0,0,0-2.069,3.584V316.7a1.688,1.688,0,0,0,.765,1.423h0a1.533,1.533,0,0,0,.17.1l4.43,2.565.388-4.454,14.673-8.471a4.14,4.14,0,0,0,2.069-3.585V289.123c1.1.541,2.007.961,2.007.961Z" fill="#141ea3"/><path d="M881.36,295.025l17.868-10.316a1.706,1.706,0,0,1,2.559,1.478v20.632a4.139,4.139,0,0,1-2.069,3.584L881.85,320.719a1.706,1.706,0,0,1-2.559-1.478V298.61A4.14,4.14,0,0,1,881.36,295.025Z" fill="#090d49"/><path d="M887.584,298.307a2.487,2.487,0,0,0-1.05,2.079l.28,7.962c.042,1.2.815,1.749,1.727,1.226a3.724,3.724,0,0,0,1.574-3.117l-.279-7.963c-.028-.8-.544-1.165-1.152-.817Zm.906,9.819a1.242,1.242,0,0,0,.525-1.039c-.014-.4-.272-.582-.576-.408a1.241,1.241,0,0,0-.524,1.039C887.929,308.118,888.186,308.3,888.49,308.126Zm2.707-2.843,2.571-5.092c.41-.818.378-1.738-.072-2.063l-.806-.572c-.454-.317-1.154.084-1.568.9l-.341.675Zm3.4.823-3.81,2.183,3.149-6.235.509-.291c.607-.349,1.123.017,1.151.817l.051,1.448A2.485,2.485,0,0,1,894.593,306.106Z" fill="#fff" fill-rule="evenodd"/><path d="M751.718,232.44l3.247-1.889a1.26,1.26,0,0,1,.163-.095h0a1.234,1.234,0,0,1,1.167.044l13.085,7.554a3.031,3.031,0,0,1,1.515,2.625v15.11a1.237,1.237,0,0,1-.56,1.042h0a1.327,1.327,0,0,1-.126.073l-3.244,1.878-.284-3.262-10.745-6.2a3.03,3.03,0,0,1-1.516-2.625v-11.1c-.808.4-1.469.7-1.469.7Z" fill="#141ea3"/><path d="M766.175,239.914l-13.084-7.555a1.25,1.25,0,0,0-1.875,1.082V248.55a3.033,3.033,0,0,0,1.516,2.626l13.085,7.554a1.249,1.249,0,0,0,1.874-1.082V242.539A3.03,3.03,0,0,0,766.175,239.914Z" fill="#000ecc"/><path d="M761.013,242.236a1.062,1.062,0,0,0,.287.9c.234.214.481.17.559-.1l.136-.5a1.007,1.007,0,0,0-.288-.9c-.234-.22-.484-.175-.559.1Zm1.52,2.13c-.237-.045-.386.193-.338.537a.924.924,0,0,0,.53.724l.434.093c.24.051.391-.189.338-.537a.875.875,0,0,0-.53-.723Zm-3.148-1.881c.165.326.445.487.626.358s.193-.5.029-.823l-.3-.59c-.169-.315-.44-.47-.625-.359l0,0c-.179.129-.191.5-.026.82Zm2.688,5.321c.164.324.443.482.622.353a.732.732,0,0,0,.029-.823l-.3-.591h0c-.165-.326-.445-.486-.626-.358s-.193.5-.029.823l.3.59Zm-5.817-4.021c-.164-.013-.28.122-.3.343a1.077,1.077,0,0,0,.224.688l1.188,1.5-1.393.989c-.181.128-.194.5-.029.823s.444.486.625.358l1.394-.989.557,1.952a.936.936,0,0,0,.406.559.261.261,0,0,0,.395-.147l1.976-4.79a.727.727,0,0,0,.016-.462c-.086-.349-.341-.631-.568-.632Z" fill="#fff" fill-rule="evenodd"/><path d="M383.7,376.5l-80.71,45.442-72.061,40.566-3.3,1.864a32.047,32.047,0,0,1-31.427,0L40.13,376.5a15.276,15.276,0,0,1-.144-26.539l13.126-7.576,14.51-8.378L195.9,259.942a32.024,32.024,0,0,1,32.025,0L357.24,334.6l15.193,8.769,11.414,6.591A15.276,15.276,0,0,1,383.7,376.5Z" fill="#2d8b6f" opacity="0.37"/><path d="M196.947,232.182,33.394,305.959v14.884a17.752,17.752,0,0,0,8.974,15.43l154.88,88.109a32.026,32.026,0,0,0,31.424,0L383.1,337.358a17.754,17.754,0,0,0,9.037-15.467V309.147L228.973,232.182A32.025,32.025,0,0,0,196.947,232.182Z" fill="#46c39e"/><path d="M196.947,202.559,41.031,292.576a15.275,15.275,0,0,0,.144,26.539l156.073,87.869a32.026,32.026,0,0,0,31.424,0l156.074-87.869a15.275,15.275,0,0,0,.144-26.539L228.973,202.559A32.021,32.021,0,0,0,196.947,202.559Z" fill="#e0f5ef"/><path d="M628.606,512.016l-53.893,30.343L526.6,569.446l-2.206,1.245a21.4,21.4,0,0,1-20.984,0L399.189,512.016a10.2,10.2,0,0,1-.1-17.722l8.765-5.058,9.689-5.595,85.659-49.455a21.383,21.383,0,0,1,21.384,0l86.346,49.852,10.145,5.856,7.621,4.4A10.2,10.2,0,0,1,628.606,512.016Z" fill="#2d8b6f" opacity="0.37"/><path d="M503.9,415.649,394.691,464.913v9.939a11.852,11.852,0,0,0,5.993,10.3L504.1,543.989a21.386,21.386,0,0,0,20.983,0L628.2,485.879a11.853,11.853,0,0,0,6.034-10.327v-8.51L525.287,415.649A21.385,21.385,0,0,0,503.9,415.649Z" fill="#46c39e"/><path d="M503.9,395.869,399.791,455.977a10.2,10.2,0,0,0,.1,17.721L504.1,532.372a21.386,21.386,0,0,0,20.983,0L629.3,473.7a10.2,10.2,0,0,0,.1-17.721L525.287,395.869A21.385,21.385,0,0,0,503.9,395.869Z" fill="#e0f5ef"/><path d="M246.509,232.006l35.857,18.845-.135-24.109a18.721,18.721,0,0,0-1.927-8.693L264.7,188.758c-3.358-6.3-10.559-7.385-18.447-2.773h0Z" fill="#37a987"/><path d="M165.664,232.46l-35.645,19.247-.138-24.12a18.7,18.7,0,0,1,1.829-8.712l15.28-29.461c3.287-6.342,10.474-7.5,18.415-2.976h0Z" fill="#37a987"/><path d="M223.381,281.039l-34.046.191.027,4.8h0c0,.045,0,.09-.007.133.03,5.474,7.678,9.87,17.078,9.817s17-4.534,16.967-10.008c0-.045,0-.091-.007-.137h0Z" fill="#236c56"/><path d="M246.774,238.323l-81.312.456.135,24.162.012-.006c0,.112-.013.218-.013.327.073,13.077,18.336,23.576,40.792,23.45s40.6-10.827,40.527-23.9c0-.111-.014-.217-.017-.328l.011,0Z" fill="#2d8b6f"/><path d="M269.266,162.565c3.928-34.483-4.248-69.5-24.117-97.953Q243.9,62.82,242.6,61.059L204.841,9.941l-37.18,51.535q-1.28,1.775-2.511,3.581c-19.556,28.679-27.339,63.779-23.026,98.217L152.14,243.25h.019c0,.145-.017.288-.016.434.1,17.366,24.353,31.312,54.177,31.146s53.925-14.381,53.828-31.75c0-.143-.016-.289-.023-.436h.018Z" fill="#81d6bd"/><path d="M197.479,148.628c-2.17-47.576.218-95.841,7.087-138.306L167.658,61.476q-1.281,1.776-2.511,3.581c-19.553,28.679-27.336,63.779-23.023,98.217L152.14,243.25h.018c0,.145-.018.288-.016.433.093,16.767,22.7,30.34,51.1,31.11Z" fill="#a3e1ce"/><path d="M197.633,184.225c.042,7.466-2.505,12.766-6.677,15.349-.127.078-4.01,2.572-4.138,2.645-4.343,2.461-1.588-3.082-8.226-6.867-13.361-7.616-24.26-26.174-24.344-41.454-.042-7.557-7.03-7.58-2.764-10.127.119-.07,4.841-2.7,4.966-2.77,4.333-2.378,10.274-1.977,16.842,1.768C186.649,150.385,197.549,168.945,197.633,184.225Z" fill="#65cdae"/><ellipse cx="168.8" cy="173.41" rx="19.633" ry="34.008" transform="translate(-64.772 110.098) rotate(-30.606)" fill="#c1ebdf"/><path d="M188.344,184.475c.073,12.408-8.671,17.454-19.517,11.273s-19.7-21.254-19.769-33.664,8.671-17.452,19.517-11.272S188.278,172.065,188.344,184.475Z" fill="#fff"/><path d="M172.668,194.113c-10.849-6.184-19.7-21.255-19.77-33.664-.031-5.72,1.812-9.871,4.867-12.084-5.286,1-8.752,5.891-8.708,13.72.073,12.407,8.92,27.48,19.769,33.664,5.847,3.331,11.079,3.4,14.653.814C180.385,197.142,176.672,196.394,172.668,194.113Z" fill="#a3e1ce"/><path d="M169.246,145c-6.4-3.651-13.008-3.367-16.058-1.9,4.012-1.147,9.706-.5,15.124,2.591,13.361,7.616,24.26,26.174,24.344,41.456.045,7.956-3.547,13.609-8.221,15.979,4.91-1.848,9.208-7.588,9.157-16.668C193.51,171.171,182.611,152.611,169.246,145Z" fill="#f5f9fc"/><path d="M166.238,265.508l-28.153,54.649-5.776-3.367-.129-23.071a33.915,33.915,0,0,1,1.739-10.413l14.525-45.259c3.129-9.738,9.96-18.8,17.507-23.22h0l5.553,3.31Z" fill="#65cdae"/><path d="M172.013,268.875l-33.93,51.289-.129-23.074a33.889,33.889,0,0,1,1.738-10.413l14.527-45.261c3.128-9.738,9.959-18.8,17.508-23.22h0Z" fill="#46c39e"/><path d="M138.462,297.711A33.928,33.928,0,0,1,140.2,287.3l14.526-45.257c2.983-9.306,9.359-17.982,16.5-22.589l-.007-1.375h0c-7.549,4.415-14.384,13.476-17.509,23.215l-14.526,45.258a33.943,33.943,0,0,0-1.738,10.412l.128,23.073,1-1.508Z" fill="#fff"/><path d="M246.3,265.062l28.763,54.331,5.737-3.43-.13-23.072a33.822,33.822,0,0,0-1.859-10.392l-15.029-45.094c-3.235-9.705-10.169-18.69-17.766-23.019h0L240.5,217.76Z" fill="#65cdae"/><path d="M240.561,268.487l34.5,50.9-.129-23.071a33.888,33.888,0,0,0-1.859-10.393l-15.029-45.093c-3.235-9.705-10.169-18.689-17.766-23.02h0Z" fill="#46c39e"/><path d="M273.828,285.923,258.8,240.83c-3.235-9.706-10.168-18.689-17.768-23.02h0l0,.292c6.878,4.646,12.992,12.956,15.97,21.889l15.029,45.093a33.912,33.912,0,0,1,1.859,10.392l.119,21.245,1.806,2.666-.13-23.073A33.839,33.839,0,0,0,273.828,285.923Z" fill="#fff"/><path d="M242.6,61.059,204.841,9.941l-37.18,51.534c-.208.289-.4.584-.61.874,6.53,8.46,21.167,14.308,38.165,14.211s31.569-6.109,38-14.636C243.007,61.639,242.809,61.346,242.6,61.059Z" fill="#a3e1ce"/><path d="M167.649,61.49c-.205.285-.4.575-.6.862,5.55,7.181,16.946,12.467,30.661,13.844a619.819,619.819,0,0,1,6.86-65.875L167.658,61.476Z" fill="#c1ebdf"/><polygon points="223.618 57.964 224.835 60.612 226.16 58.077 228.884 57.735 226.947 55.697 227.48 52.899 224.95 54.217 222.514 52.772 222.975 55.595 220.938 57.532 223.618 57.964" fill="lime"/><polygon points="218.689 145.129 220.007 147.659 221.231 145.242 224.054 144.781 222.02 142.863 222.552 140.064 220.121 141.263 217.585 139.938 218.046 142.761 216.009 144.696 218.689 145.129" fill="lime"/><polygon points="301.387 77.892 302.705 80.422 303.929 78.005 306.752 77.545 304.718 75.627 305.25 72.828 302.819 74.026 300.283 72.701 300.745 75.524 298.707 77.459 301.387 77.892" fill="lime"/><polygon points="107.17 171.7 119.405 150.789 109.673 151.627 114.797 138.895 98.536 159.792 110.098 157.813 107.17 171.7" fill="lime"/><polygon points="257.195 31.817 257.099 34.577 259.274 32.961 261.99 33.83 261.11 31.262 262.892 28.908 260.031 28.931 258.514 26.639 257.526 29.256 254.84 30.036 257.195 31.817" fill="lime"/><polygon points="119.243 33.32 119.147 36.081 121.322 34.465 124.039 35.333 123.159 32.765 124.94 30.411 122.081 30.435 120.562 28.142 119.575 30.76 116.889 31.538 119.243 33.32" fill="lime"/><polygon points="167.064 85.151 166.969 87.911 169.142 86.295 171.86 87.164 170.981 84.597 172.761 82.243 169.901 82.266 168.383 79.973 167.395 82.591 164.709 83.37 167.064 85.151" fill="lime"/><polygon points="279.975 164.742 279.879 167.503 282.054 165.887 284.77 166.756 283.89 164.188 285.672 161.835 282.811 161.857 281.294 159.565 280.306 162.183 277.62 162.961 279.975 164.742" fill="lime"/><polygon points="126.368 130.174 126.054 132.953 128.466 131.536 130.982 132.643 130.42 129.938 132.221 127.802 129.56 127.59 128.024 125.077 126.936 127.813 124.232 128.373 126.368 130.174" fill="lime"/><polygon points="156.367 335.565 169.861 327.256 164.135 324.662 171.038 319.119 155.209 325.865 162.366 328.446 156.367 335.565" fill="lime"/><polygon points="233.211 347.619 231.341 331.881 236.93 334.758 236.988 325.904 241.533 342.5 235.063 338.496 233.211 347.619" fill="lime"/><polygon points="200.39 322.453 205.439 337.475 199.378 335.802 201.134 344.481 193.291 329.165 200.441 331.762 200.39 322.453" fill="lime"/><path d="M183.475,323.393c-1.695,4.635-3.514,9.223-5.349,13.8s-3.759,9.12-5.633,13.68c-1.961,4.525-3.879,9.073-5.88,13.58l-3.027,6.752c-1.049,2.234-2.06,4.485-3.14,6.7.838-2.323,1.746-4.616,2.62-6.927l2.729-6.877c1.835-4.58,3.759-9.121,5.635-13.681,1.965-4.525,3.879-9.073,5.882-13.581S181.336,327.843,183.475,323.393Z" fill="lime"/><path d="M213.969,325.8c.846,3.959,1.565,7.935,2.264,11.913s1.335,7.97,1.958,11.96c.6,4,1.188,7.991,1.693,12l.751,6.014c.21,2.011.462,4.021.632,6.033-.432-1.977-.794-3.965-1.194-5.947L219,361.813c-.711-3.978-1.336-7.969-1.956-11.96-.593-4-1.188-7.992-1.688-11.994S214.341,329.836,213.969,325.8Z" fill="lime"/><path d="M198.917,351.932a55.59,55.59,0,0,1,1.2,8.429,54.764,54.764,0,0,1,.045,8.515,54.809,54.809,0,0,1-1.2-8.429A55.388,55.388,0,0,1,198.917,351.932Z" fill="lime"/><path d="M176.814,361.026c-1.383,3.679-2.883,7.3-4.4,10.918s-3.095,7.208-4.682,10.791c-1.612,3.574-3.229,7.146-4.925,10.682l-2.552,5.3c-.891,1.744-1.738,3.515-2.661,5.251.681-1.842,1.43-3.656,2.142-5.485l2.255-5.434c1.506-3.621,3.1-7.209,4.684-10.791,1.614-3.573,3.23-7.145,4.932-10.682S174.989,364.51,176.814,361.026Z" fill="lime"/><ellipse cx="513.36" cy="471.473" rx="20.743" ry="4.759" fill="#c4dffa" opacity="0.59"/><circle cx="513.563" cy="411.668" r="57.781" transform="translate(-140.674 483.719) rotate(-45)" fill="#090d49"/><path d="M504.1,354.664c-.227.037-.454.072-.68.112a4.31,4.31,0,0,0-.282.539l.448.193A3.122,3.122,0,0,1,504.1,354.664Z" fill="#5b8bca"/><path d="M571.2,415.767a21,21,0,0,1-.826,3.444A62.734,62.734,0,0,0,562.458,395a20.661,20.661,0,0,0,.112-13.949c-.368-.587-.743-1.169-1.131-1.742,2.128,5.5,2.368,10.584.7,15.157-.3-.5-.6-.993-.905-1.481A63.98,63.98,0,0,0,541.745,373.7q-.669-.433-1.339-.845a10.938,10.938,0,0,0,2.246-6.459,9.651,9.651,0,0,0-.079-1.167,53.789,53.789,0,0,1,14.762,8.722q-.941-1.091-1.933-2.134a54.321,54.321,0,0,0-12.906-7.158,11.1,11.1,0,0,0-1.513-3.862c-.3-.161-.595-.317-.895-.472a11.108,11.108,0,0,1,1.865,4.129,52.893,52.893,0,0,0-13.775-3.142,51.74,51.74,0,0,0-13.232.49c1.543-2.324,4.379-6.233,6.662-7.355-.251-.034-.5-.071-.752-.1-2.455,1.578-5.2,5.467-6.576,7.579-.183.035-.358.069-.517.1-1.376-2.123-4.24-6.219-6.765-7.764-.277.031-.553.06-.828.095,2.425,1.031,5.557,5.453,7.079,7.779l-.034.007a50.262,50.262,0,0,0-14.963-.83,52.9,52.9,0,0,0-13.59,3.073,10.916,10.916,0,0,1,1.547-3.623c-.28.151-.557.306-.835.461a10.951,10.951,0,0,0-1.255,3.364,53.952,53.952,0,0,0-10.749,5.576q-.978.946-1.91,1.938a53.352,53.352,0,0,1,12.575-6.941,9.783,9.783,0,0,0-.087,1.236,10.928,10.928,0,0,0,2.249,6.463c-.251.155-.5.307-.753.466a62.734,62.734,0,0,0-19.509,19.029c-.316.492-.621.991-.922,1.493a22.918,22.918,0,0,1,.387-14.1q-.5.759-.985,1.534a23.125,23.125,0,0,0,.267,13.127A62.014,62.014,0,0,0,456.8,418.43a23.025,23.025,0,0,1-.977-5.087h-.01q.065,2.264.3,4.482c.161.583.345,1.172.561,1.766q-.074.7-.135,1.4.156.965.344,1.919.075-1.172.182-2.314c2.243,5.4,6.982,11.138,16.268,15.923a53.663,53.663,0,0,0,10.653,23.926c-.961-.295-1.893-.6-2.809-.92.54.366,1.088.721,1.641,1.07.577.184,1.159.366,1.752.543a96.623,96.623,0,0,0,18.505,3.617A33.82,33.82,0,0,0,505,468.817c.2.03.411.058.616.086a32.669,32.669,0,0,1-2.007-4.1q4.239.379,8.487.381a94.764,94.764,0,0,0,12.3-.806,32.495,32.495,0,0,1-2.183,4.424c.209-.031.416-.066.624-.1a33.552,33.552,0,0,0,2.109-4.4,95.4,95.4,0,0,0,17-3.938c2.077-.686,4.034-1.417,5.892-2.184q.8-.589,1.579-1.206-2.619,1.162-5.553,2.214a53.409,53.409,0,0,0,10.461-23.126c7.844-4.085,13.159-9.1,15.764-14.891.057.594.1,1.2.145,1.8q.183-.923.336-1.857c-.028-.3-.056-.59-.087-.884.134-.339.255-.681.371-1.026Q571.078,417.506,571.2,415.767ZM541.48,374.11A63.349,63.349,0,0,1,561.89,395.1c-.061.151-.117.3-.183.454-2.162,4.927-6.342,8.717-11.06,11.6-4.435-10.81-11.607-20.387-18.464-27.878a22.166,22.166,0,0,0,7.925-6.038Q540.794,373.667,541.48,374.11Zm-16.747,31.02c.624,3.348,1.216,6.881,1.733,10.513a80.288,80.288,0,0,1-25.007.266c.516-3.666,1.107-7.233,1.731-10.613,1.493-8.092,3.277-15.767,4.962-22.315a50.907,50.907,0,0,0,5.148.264,50.28,50.28,0,0,0,6.428-.412C521.426,389.371,523.226,397.041,524.733,405.13Zm-9.98-41.271a137.858,137.858,0,0,1,16.634,15.274,40.619,40.619,0,0,1-11.294,3.162C517.757,373.344,515.633,366.576,514.753,363.859ZM502.711,405.2c-.625,3.387-1.218,6.961-1.734,10.635a82.1,82.1,0,0,1-11.157-2.5,56.721,56.721,0,0,1-12.406-5.207c4.351-10.945,11.441-20.677,18.212-28.289a42.2,42.2,0,0,0,12.035,3.092C505.979,389.472,504.2,397.129,502.711,405.2ZM501.393,416.4a80.593,80.593,0,0,0,25.139-.272,157.664,157.664,0,0,1,1.7,27.7,94.414,94.414,0,0,1-28.5.191A158.963,158.963,0,0,1,501.393,416.4Zm23.819-11.36c-1.5-8.075-3.3-15.733-5-22.266a40.906,40.906,0,0,0,11.508-3.27c6.871,7.489,14.075,17.083,18.5,27.916a60.444,60.444,0,0,1-11.852,5.272,80.966,80.966,0,0,1-11.428,2.87C526.428,411.922,525.836,408.387,525.212,405.035Zm-10.64-42.663a52.943,52.943,0,0,1,27.483,2.658,9.285,9.285,0,0,1,.109,1.366A10.508,10.508,0,0,1,540,372.608a82.825,82.825,0,0,0-25.5-10.115ZM539.7,373a21.742,21.742,0,0,1-7.852,5.921,136.971,136.971,0,0,0-17.362-15.875l-.019-.059A82.387,82.387,0,0,1,539.7,373Zm-25.886-9.419c0-.01.067-.112.173-.284.069.112.119.194.146.24.757,2.313,2.993,9.334,5.471,18.824a50.056,50.056,0,0,1-6.305.4c-1.715,0-3.392-.09-5.025-.253,2.474-9.565,4.711-16.645,5.465-18.97Zm-.455-.455c-.662,2.031-2.993,9.333-5.576,19.33a42,42,0,0,1-11.826-2.988A136.2,136.2,0,0,1,513.36,363.124Zm-17.867,16.135A22.353,22.353,0,0,1,486.9,373a81.324,81.324,0,0,1,25.856-10.024A138,138,0,0,0,495.493,379.259ZM484.436,366.4a9.406,9.406,0,0,1,.117-1.435,52.8,52.8,0,0,1,27.738-2.508l.031.107A82.2,82.2,0,0,0,486.6,372.608,10.5,10.5,0,0,1,484.436,366.4Zm1.254,7.351c.268-.17.537-.333.805-.5a22.8,22.8,0,0,0,8.668,6.38c-6.755,7.613-13.813,17.323-18.171,28.243-5.3-3.19-9.022-7.085-11.086-11.663-.254-.562-.475-1.122-.669-1.678A62.1,62.1,0,0,1,485.69,373.747Zm-28.521,45.78a61.809,61.809,0,0,1,7.748-24.456c.164.442.34.886.541,1.332,2.113,4.692,5.921,8.676,11.35,11.927a59.836,59.836,0,0,0-3.6,13.457,49.225,49.225,0,0,0,.024,14.132C463.778,430.968,459.2,425.026,457.169,419.527Zm16.523,2.329a59.282,59.282,0,0,1,3.538-13.269,57.344,57.344,0,0,0,12.45,5.215,82.6,82.6,0,0,0,11.231,2.515,159.715,159.715,0,0,0-1.669,27.624,96.638,96.638,0,0,1-13.268-2.966,72.493,72.493,0,0,1-12.2-4.779A48.669,48.669,0,0,1,473.692,421.856Zm11.089,38.834A53.592,53.592,0,0,1,473.869,436.8a73.631,73.631,0,0,0,11.965,4.648,97.191,97.191,0,0,0,13.431,3c.325,7.269,1.412,14.088,3.606,19.8A96.276,96.276,0,0,1,484.781,460.69Zm39.818,3.172a94.281,94.281,0,0,1-21.186.431c-2.226-5.683-3.328-12.5-3.66-19.781a94.7,94.7,0,0,0,28.449-.189C527.872,451.5,526.786,458.232,524.6,463.862Zm18.435-4.383c-.413.143-.819.289-1.242.428a94.957,94.957,0,0,1-16.64,3.878,63.91,63.91,0,0,0,3.538-19.541,95.588,95.588,0,0,0,14.525-3.566,76.025,76.025,0,0,0,10.559-4.325A53.34,53.34,0,0,1,543.034,459.479Zm10.842-23.688a77.509,77.509,0,0,1-10.815,4.424,95.09,95.09,0,0,1-14.347,3.531,158.5,158.5,0,0,0-1.7-27.706,81.288,81.288,0,0,0,11.514-2.89,60.868,60.868,0,0,0,11.884-5.278,57.717,57.717,0,0,1,3.578,12.951A47.431,47.431,0,0,1,553.876,435.791Zm.539-.281a47.943,47.943,0,0,0,.056-14.76,58.265,58.265,0,0,0-3.637-13.134c4.819-2.936,9.1-6.809,11.32-11.862.017-.039.031-.08.048-.12a62.481,62.481,0,0,1,7.79,24.618Q566.448,429.222,554.415,435.51Z" fill="#5b8bca"/><path d="M524.393,355.508l.448-.193c-.054-.126-.112-.245-.172-.357-.219-.043-.436-.086-.655-.126A3.44,3.44,0,0,1,524.393,355.508Z" fill="#5b8bca"/><path d="M514.6,487.583c-11.667,0-23.333-2.563-32.215-7.691-10.757-6.21-15.475-15.15-12.621-23.912a.488.488,0,1,1,.928.3c-2.7,8.292,1.853,16.8,12.181,22.765,8.746,5.049,20.238,7.574,31.727,7.575s22.978-2.524,31.727-7.575c10.489-6.056,15-14.687,12.071-23.089a.488.488,0,0,1,.922-.321c3.1,8.879-1.578,17.946-12.505,24.255C537.928,485.02,526.261,487.583,514.6,487.583Z" fill="lime"/><path d="M514.6,461.523c-18.618,0-37.236-4.092-51.409-12.275-12.715-7.34-20.259-17.153-21.241-27.629-.863-9.215,3.5-18.451,12.28-26.008a.488.488,0,0,1,.637.739c-8.536,7.345-12.779,16.287-11.945,25.178.952,10.152,8.323,19.7,20.757,26.875,28.077,16.211,73.764,16.211,101.842,0,12.749-7.361,20.141-17.153,20.812-27.575.61-9.477-4.474-18.837-14.317-26.354a.488.488,0,0,1,.592-.776c10.111,7.723,15.331,17.38,14.7,27.193-.693,10.757-8.257,20.828-21.3,28.357C551.83,457.431,533.212,461.523,514.6,461.523Z" fill="lime"/><path d="M514.6,430.053c-23.56,0-47.12-5.178-65.056-15.533-17.4-10.044-26.978-23.483-26.978-37.841s9.581-27.8,26.978-37.841c35.872-20.71,94.24-20.71,130.111,0,17.4,10.045,26.979,23.484,26.978,37.841s-9.581,27.8-26.978,37.841C561.714,424.875,538.154,430.053,514.6,430.053Zm-64.568-16.378c35.6,20.555,93.532,20.555,129.135,0,17.082-9.862,26.49-23,26.49-37s-9.407-27.133-26.49-37c-35.6-20.554-93.532-20.555-129.135,0-17.082,9.863-26.49,23-26.49,37S432.945,403.813,450.027,413.675Z" fill="lime"/></svg>