<!DOCTYPE svg PUBLIC "-//W3C//DTD SVG 1.1//EN" "http://www.w3.org/Graphics/SVG/1.1/DTD/svg11.dtd">
<!-- Uploaded to: SVG Repo, www.svgrepo.com, Transformed by: SVG Repo Mixer Tools -->
<svg xmlns="http://www.w3.org/2000/svg" xmlns:xlink="http://www.w3.org/1999/xlink" version="1.1" id="floppydisc" viewBox="0 0 200 208" enable-background="new 0 0 200 208" xml:space="preserve" width="800px" height="800px" fill="#000000">
<g id="SVGRepo_bgCarrier" stroke-width="0"/>
<g id="SVGRepo_tracerCarrier" stroke-linecap="round" stroke-linejoin="round"/>
<g id="SVGRepo_iconCarrier"> <g> <rect x="52" y="20" fill="#D0E8FF" width="12" height="24"/> <path fill="#D0E8FF" d="M32,120v80h136v-80H32z M156,172H44v-8h112V172z M156,156H44v-8h112V156z M156,140H44v-8h112V140z"/> <path fill="#D0E8FF" d="M156,56V8H40v48H156z M44,12h28v40H44V12z"/> <path fill="#5CB0FF" d="M164,8.0127V64H32V8H8v192h16v-88h152v88h16V36.2441C192,20.7529,179.46,8.1465,164,8.0127z"/> <path fill="#1C71DA" d="M164,0.0127V0h-0.2461H32H0v208h24h152h24V36.2441C200,16.3428,183.8704,0.147,164,0.0127z M156,8v48H40V8 H156z M32,200v-80h136v80H32z M192,200h-16v-88H24v88H8V8h24v56h132V8.0127c15.46,0.1338,28,12.7402,28,28.2314V200z"/> <path fill="#1C71DA" d="M72,12H44v40h28V12z M64,44H52V20h12V44z"/> <rect x="44" y="132" fill="#1C71DA" width="112" height="8"/> <rect x="44" y="148" fill="#1C71DA" width="112" height="8"/> <rect x="44" y="164" fill="#1C71DA" width="112" height="8"/> </g> <path fill="#FF5D5D" d="M148.252,107.8237c-1.0234,0-2.0469-0.3906-2.8281-1.1714c-1.5625-1.5625-1.5625-4.0952,0-5.6572 l14.1426-14.1421c1.5605-1.5615,4.0938-1.5615,5.6562,0c1.5625,1.5625,1.5625,4.0952,0,5.6572l-14.1426,14.1421 C150.2998,107.4331,149.2754,107.8237,148.252,107.8237z"/> <path fill="#FF5D5D" d="M162.3945,107.8223c-1.0234,0-2.0479-0.3906-2.8281-1.1714l-14.1426-14.1426 c-1.5625-1.5625-1.5625-4.0947,0-5.6572c1.5605-1.5615,4.0957-1.5615,5.6562,0l14.1426,14.1426 c1.5625,1.5625,1.5625,4.0947,0,5.6572C164.4424,107.4316,163.418,107.8223,162.3945,107.8223z"/> <path fill="#00D40B" d="M138.252,47.8237c-7.7197,0-14-6.2803-14-14s6.2803-14,14-14s14,6.2803,14,14 S145.9717,47.8237,138.252,47.8237z M138.252,27.8237c-3.3086,0-6,2.6914-6,6s2.6914,6,6,6s6-2.6914,6-6 S141.5605,27.8237,138.252,27.8237z"/> <path fill="#FFC504" d="M35.5664,102.4492c-1.0234,0-2.0469-0.3906-2.8281-1.1714L21.4238,89.9644 c-0.75-0.75-1.1719-1.7676-1.1719-2.8286s0.4219-2.0786,1.1719-2.8286l11.3145-11.3135c1.5625-1.5615,4.0938-1.5615,5.6562,0 L49.708,84.3071c1.5625,1.5625,1.5625,4.0947,0,5.6572l-11.3135,11.3135C37.6143,102.0586,36.5898,102.4492,35.5664,102.4492z M29.9092,87.1357l5.6572,5.6567l5.6562-5.6567l-5.6562-5.6567L29.9092,87.1357z"/> </g>
</svg>